<?xml version="1.0" encoding="UTF-8" standalone="no"?>
<!-- Created with Inkscape (http://www.inkscape.org/) -->

<svg
   xmlns:dc="http://purl.org/dc/elements/1.1/"
   xmlns:cc="http://creativecommons.org/ns#"
   xmlns:rdf="http://www.w3.org/1999/02/22-rdf-syntax-ns#"
   xmlns:svg="http://www.w3.org/2000/svg"
   xmlns="http://www.w3.org/2000/svg"
   xmlns:sodipodi="http://sodipodi.sourceforge.net/DTD/sodipodi-0.dtd"
   xmlns:inkscape="http://www.inkscape.org/namespaces/inkscape"
   version="1.1"
   width="460"
   height="540.00018"
   id="svg2"
   xml:space="preserve"
   inkscape:version="0.48.4 r"
   sodipodi:docname="ICRC_logo.svg"><metadata
     id="metadata21"><rdf:RDF><cc:Work
         rdf:about=""><dc:format>image/svg+xml</dc:format><dc:type
           rdf:resource="http://purl.org/dc/dcmitype/StillImage" /></cc:Work></rdf:RDF></metadata><sodipodi:namedview
     pagecolor="#ffffff"
     bordercolor="#666666"
     borderopacity="1"
     objecttolerance="10"
     gridtolerance="10"
     guidetolerance="10"
     inkscape:pageopacity="0"
     inkscape:pageshadow="2"
     inkscape:window-width="640"
     inkscape:window-height="480"
     id="namedview19"
     showgrid="false"
     inkscape:zoom="0.43703689"
     inkscape:cx="230"
     inkscape:cy="270.00009"
     inkscape:window-x="0"
     inkscape:window-y="0"
     inkscape:window-maximized="0"
     inkscape:current-layer="svg2" /><defs
     id="defs6" /><path
     d="m 230,2.6868412 c 84.8463,0 154.05151,69.2176668 154.05151,154.0763888 0,84.83376 -69.20521,154.02647 -154.05151,154.02647 -84.8463,0 -154.051513,-69.19271 -154.051513,-154.02647 C 75.948487,71.904508 145.1537,2.6868412 230,2.6868412"
     id="path103000"
     style="fill:#ffffff;fill-opacity:1;fill-rule:nonzero;stroke:none" /><path
     d="m 230,2.6868412 c 84.8463,0 154.05151,69.2176668 154.05151,154.0763888 0,84.83376 -69.20521,154.02647 -154.05151,154.02647 -84.8463,0 -154.051513,-69.19271 -154.051513,-154.02647 C 75.948487,71.904508 145.1537,2.6868412 230,2.6868412 z"
     id="path103004"
     style="fill:none;stroke:#231f20;stroke-width:4.6061902;stroke-linecap:butt;stroke-linejoin:miter;stroke-miterlimit:2.61299992;stroke-opacity:1;stroke-dasharray:none" /><path
     d="m 100.04922,195.63871 c -5.929371,3.34542 -8.33857,10.41074 -5.405095,16.85192 4.081912,9.01265 13.469055,11.37192 21.657835,7.71442 8.21375,-3.645 12.99471,-11.69646 9.02514,-20.23477 -3.00838,-6.49111 -9.49949,-9.42458 -16.75205,-7.15269 l 1.77257,4.89328 c 4.35653,-1.44801 8.9752,0 10.95999,4.4564 2.74624,6.15407 -2.10961,10.74777 -7.61458,13.20691 -5.51743,2.45912 -11.92117,1.66022 -14.654918,-4.51881 -1.872438,-4.18177 -0.174763,-7.57712 2.733748,-9.88646 l -1.72264,-5.3302 z M 84.907461,175.89077 c 1.086013,9.31224 9.699213,14.65493 18.549599,13.24435 8.86286,-1.38559 15.4788,-7.55215 14.19306,-16.93928 -1.27326,-9.33721 -8.95025,-13.19442 -17.813109,-12.68263 -8.962725,0.54925 -16.02805,6.97794 -14.92955,16.37756 m 4.5313,-0.724 c -0.761462,-6.75325 4.581225,-9.7866 10.560541,-10.42322 6.054198,-0.67407 12.358058,1.47298 13.219378,8.13884 0.86133,6.76573 -4.8933,9.89895 -10.84763,10.8102 -5.954351,0.9487 -12.170839,-1.83499 -12.932289,-8.52582 m 26.526159,-18.97401 0.21221,-4.99316 -23.817369,-2.14706 24.653719,-6.17903 0.44939,-4.50632 -22.781296,-13.56891 24.591326,4.75598 1.26077,-4.89329 -31.669134,-6.24145 -1.497937,7.36491 23.055911,13.68125 -0.0125,0.0749 -25.939474,5.74213 -0.374487,8.42595 31.868851,2.48409 z m 6.10414,-35.42645 1.88492,-5.18041 -30.083794,-11.19715 -1.884912,5.19288 30.083786,11.18468 z m -21.88253,-19.49828 4.6686,-8.88783 22.90614,14.24298 2.58396,-4.86833 -22.79378,-14.21801 4.90578,-8.937753 -3.98205,-2.459134 -12.720069,23.118325 4.431419,2.009752 z m 35.776,-9.100044 14.605,-17.226394 -3.30797,-3.420312 -11.12226,13.381668 -7.2276,-6.378768 9.91142,-12.095926 -3.12072,-3.120719 -10.31088,12.120895 -6.29139,-5.704686 11.0973,-12.657659 -3.39535,-3.595071 -14.72982,17.463564 23.89227,21.233409 z m 31.71907,-30.782821 4.6686,-2.908517 -16.87689,-27.200222 -4.65611,2.908518 16.8644,27.200221 z m 9.00017,-5.417577 4.60619,-2.221951 -9.32473,-21.295818 0.13732,-0.06242 21.25838,16.327639 5.51744,-1.635261 -9.72419,-30.458271 -5.23032,1.535396 7.04035,22.69391 -0.26214,0.01249 -21.58294,-16.851918 -5.31772,2.696304 12.88236,29.259909 z m 17.33875,-35.5388 9.37466,-1.560365 4.13184,25.976903 5.44255,-0.873799 -4.13184,-26.039314 9.77412,-1.735125 -0.5118,-4.993163 -25.40272,4.31908 1.32319,4.905783 z m 29.77173,22.556591 22.9311,0.836358 0.0749,-4.743507 -17.42612,-0.748966 0.29958,-9.62432 15.8408,0.362004 0.0624,-4.481355 -15.82833,-0.374489 0.13732,-8.563265 16.97675,0.836358 0.0874,-4.755992 -22.46922,-0.936209 -0.68657,32.193383 z m 38.65955,-23.842332 8.6881,2.371753 c 2.75872,0.724008 4.71853,2.696304 3.62005,6.528559 -0.92374,3.183129 -2.89604,4.269141 -6.22898,3.345404 l -9.01265,-2.471606 2.93348,-9.77411 z m -12.68263,25.227937 5.03061,1.135939 3.57012,-12.582764 8.11388,2.234448 c 4.86833,1.335667 4.96819,4.169289 3.38287,9.711688 -0.4369,1.485471 -0.89878,3.258037 -0.46187,4.805918 l 5.55489,2.284373 c -0.81139,-1.560365 -0.24966,-5.704685 0.74898,-9.224862 1.37311,-4.780949 -0.57422,-6.890563 -2.34679,-7.664497 l 0.0375,-0.08739 c 1.06105,-0.03745 5.20537,-0.374489 6.85311,-6.179039 1.47299,-5.117983 -0.71152,-9.624308 -7.33995,-11.459297 l -14.5301,-4.031972 -8.6132,31.057445 z m 27.41246,8.563266 4.84337,2.271889 10.79771,-20.334641 0.12487,0.07491 1.71017,27.911758 4.54377,3.357901 17.17648,-26.92561 -4.39399,-3.445281 -12.75753,19.922698 -1.63526,-28.485962 -5.35516,-2.633894 -15.05438,28.286247 z m 52.62792,5.005634 0.0749,0.06242 0.025,0.01248 -6.40372,13.643794 -6.70333,-6.97793 13.00719,-6.740772 z m -29.33483,9.237347 4.44393,3.719905 7.9516,-4.169289 8.8379,8.975208 -3.85722,8.725539 3.65749,4.531294 14.23051,-32.805055 -4.28163,-4.106867 -30.98258,15.129265 z m 39.65819,1.472986 5.19289,7.564632 -22.3444,14.96699 2.98342,4.606189 22.36936,-14.954505 5.65475,8.251187 4.0944,-2.346785 -14.18058,-21.021195 -3.76984,2.933487 z m -8.50085,36.612333 2.32181,4.98068 29.03524,-13.718709 -2.3343,-4.968193 -29.02275,13.706222 z m 39.63321,12.9822 c -2.54651,-9.00016 -11.33447,-12.74502 -19.92271,-9.87396 -8.50086,2.85858 -14.25548,10.34832 -11.77138,19.4109 2.42168,8.86287 10.99744,11.93365 19.64809,9.59936 8.763,-2.37176 14.59251,-10.17357 12.046,-19.1363 m -4.33156,1.41058 c 1.79754,6.34131 -3.37039,11.17219 -9.21239,12.67015 -5.82951,1.51042 -12.14586,0.52427 -13.8685,-5.84201 -1.74761,-6.51607 3.34541,-11.0973 9.11251,-12.85738 5.75463,-1.76009 12.13339,-0.44938 13.96838,6.02924 m -23.59269,24.71613 0.2871,5.23034 23.2931,-1.27327 0,0.13733 -23.26812,15.37891 -0.28712,5.82952 31.69409,2.67134 0.54925,-5.94186 -23.79241,-1.58532 0,-0.33705 24.04207,-15.54119 -0.41193,-6.20401 -32.10603,1.63526 z m 22.09474,49.54461 -0.0125,0.0749 -0.025,0.0624 -15.02941,0.34952 2.73375,-9.22486 12.33311,8.73802 z m -22.46923,-21.72023 -0.82387,5.64226 7.36491,4.76847 -3.57011,12.046 -8.70058,0.54924 -1.98478,5.46751 34.5402,-2.34678 1.62277,-5.60482 -28.44854,-20.52188 z m -8.75051,30.99503 -10.41075,18.77427 4.16929,2.30934 7.7394,-13.96836 23.96717,13.3567 2.65887,-4.79343 -28.12398,-15.67852"
     id="path103008"
     style="fill:#231f20;fill-opacity:1;fill-rule:nonzero;stroke:none" /><path
     d="m 301.58571,284.35966 18.63697,-12.75753 -2.65886,-4.00701 -14.0932,9.79908 -5.29275,-7.82678 12.79498,-9.05009 -2.53403,-3.75736 -12.79497,9.03761 -4.73103,-7.33995 13.9434,-9.6243 -2.68382,-3.99453 -18.47469,12.60773 17.888,26.91313 z"
     id="path103012"
     style="fill:#231f20;fill-opacity:1;fill-rule:nonzero;stroke:none" /><path
     d="m 277.62477,295.16111 5.71718,-2.07216 -1.89742,-34.54019 -5.01812,2.24693 1.83499,27.10036 -0.0874,0.0499 -16.70212,-21.69527 -5.35518,1.58532 21.50805,27.32507 z"
     id="path103016"
     style="fill:#231f20;fill-opacity:1;fill-rule:nonzero;stroke:none" /><path
     d="m 236.89056,302.70826 22.43177,-2.69631 -0.97366,-4.5937 -16.80199,1.90989 -1.1734,-9.64928 14.71735,-1.7601 -0.88628,-4.41894 -14.55507,1.74761 -0.99863,-8.6881 16.26522,-1.66021 -0.8738,-4.71854 -20.82149,2.50906 3.66998,32.01862 z"
     id="path103020"
     style="fill:#231f20;fill-opacity:1;fill-rule:nonzero;stroke:none" /><path
     d="m 167.83763,288.88594 21.25839,7.92665 1.22333,-4.56874 -15.74095,-5.89192 3.18313,-9.06259 14.1681,5.44254 1.13595,-4.3066 -13.84355,-5.34267 2.88357,-8.35106 15.15423,6.1291 1.22333,-4.49384 -19.7105,-7.77685 -10.93503,30.29598 z"
     id="path103024"
     style="fill:#231f20;fill-opacity:1;fill-rule:nonzero;stroke:none" /><path
     d="m 168.27703,270.27271 -11.19717,-7.0903 -2.34678,3.40784 7.27753,4.64364 c -3.07079,4.29411 -7.90168,5.33019 -12.57029,2.04719 -5.5424,-3.93211 -4.49384,-10.58549 -1.11097,-15.51624 3.3579,-4.91825 8.90031,-7.91415 14.48017,-4.04446 3.283,2.27189 5.1055,6.10414 3.22059,9.77411 l 4.69357,2.67134 c 3.25804,-6.2664 0.29959,-12.15833 -5.4051,-16.10295 -7.8143,-5.46749 -16.55233,-2.80864 -21.55797,4.51882 -5.00565,7.35243 -4.61868,16.92681 3.17065,22.35687 3.19562,2.22195 6.14159,2.64637 10.46067,1.62278 l -0.74897,4.49384 2.93349,1.72264 8.70058,-14.50512"
     id="path103028"
     style="fill:#231f20;fill-opacity:1;fill-rule:nonzero;stroke:none" /><path
     d="m 197.96637,299.18933 5.28026,1.11099 4.16929,-23.39296 0.13731,0.025 12.6327,25.4776 5.90442,0.31206 1.49795,-32.06856 -4.94323,-0.13731 -0.98615,23.53026 -0.0874,-0.025 -12.57028,-25.29035 -5.57986,-1.14844 -5.45503,31.60669 z"
     id="path103032"
     style="fill:#231f20;fill-opacity:1;fill-rule:nonzero;stroke:none" /><path
     d="m 230,51.013129 c 58.23275,0 105.75516,47.52239 105.75516,105.742611 0,58.22023 -47.52241,105.74262 -105.75516,105.74262 -58.25772,0 -105.7302,-47.52239 -105.7302,-105.74262 0,-58.220222 47.47248,-105.742611 105.7302,-105.742611 z"
     id="path103036"
     style="fill:none;stroke:#231f20;stroke-width:4.6061902;stroke-linecap:butt;stroke-linejoin:miter;stroke-miterlimit:2.61299992;stroke-opacity:1;stroke-dasharray:none" /><path
     d="m 207.5807,134.32897 0,-53.863693 44.8386,0 0,53.863693 53.85123,0 0,44.86353 -53.85123,0 0,53.83873 -44.8386,0 0,-53.83873 -53.86373,0 0,-44.86353 53.86373,0 z"
     id="path103040"
     style="fill:#ed1c24;fill-opacity:1;fill-rule:nonzero;stroke:none" /><path
     d="m -5e-7,391.41446 19.2860865,0 0,145.11743 -19.2860865,0 0,-145.11743 z"
     id="path103042"
     style="fill:#ffffff;fill-opacity:1;fill-rule:nonzero;stroke:none" /><path
     d="m 153.67827,435.11467 c -4.05694,-20.50968 -20.5094,-30.88324 -40.60687,-30.88324 -34.502753,0 -49.120235,28.44606 -49.120235,58.72937 0,33.13293 14.617482,60.77911 49.319955,60.77911 25.37774,0 39.99523,-17.88503 41.83021,-41.86921 l 19.2736,0 c -3.64501,36.18249 -26.17665,58.12946 -62.71411,58.12946 -45.075763,0 -66.995742,-33.33289 -66.995742,-75.60204 0,-42.08169 23.954693,-76.42694 68.606042,-76.42694 30.25855,0 55.22436,16.26025 59.69324,47.14349 l -19.28609,0"
     id="path103046"
     style="fill:#ffffff;fill-opacity:1;fill-rule:nonzero;stroke:none" /><path
     d="m 217.62195,458.2927 0,-50.6055 47.90938,0 c 18.06277,0 25.7772,10.56104 25.7772,24.78408 0,21.14707 -15.42887,25.82142 -33.49163,25.82142 l -40.19495,0 z m -19.29857,78.25169 19.29857,0 0,-61.99143 47.098,0 c 18.67442,0 22.11971,11.98584 24.15442,26.22137 2.83361,14.22304 -0.19972,29.88337 5.28026,35.77006 l 21.52053,0 c -8.12636,-9.96113 -7.31498,-25.80893 -8.5383,-40.03197 -1.41058,-14.23553 -4.86834,-26.63381 -21.70778,-29.88336 l 0,-0.41245 c 17.4511,-4.86183 25.16554,-19.29733 25.16554,-36.79492 0,-23.15928 -16.85192,-38.00723 -44.05217,-38.00723 l -68.21907,0 0,145.12993"
     id="path103050"
     style="fill:#ffffff;fill-opacity:1;fill-rule:nonzero;stroke:none" /><path
     d="m 439.30335,435.11467 c -4.05695,-20.50968 -20.50942,-30.88324 -40.60689,-30.88324 -34.51523,0 -49.13271,28.44606 -49.13271,58.72937 0,33.13293 14.61748,60.77911 49.33243,60.77911 25.37775,0 39.99523,-17.88503 41.81773,-41.86921 l 19.28609,0 c -3.65749,36.18249 -26.17665,58.12946 -62.72659,58.12946 -45.06329,0 -66.98326,-33.33289 -66.98326,-75.60204 0,-42.08169 23.95468,-76.42694 68.60603,-76.42694 30.25857,0 55.22437,16.26025 59.69325,47.14349 l -19.28608,0"
     id="path103054"
     style="fill:#ffffff;fill-opacity:1;fill-rule:nonzero;stroke:none" /></svg>