<?xml version="1.0" encoding="UTF-8"?>
<!-- Generator: Adobe Illustrator 15.0.2, SVG Export Plug-In . SVG Version: 6.00 Build 0)  -->
<!DOCTYPE svg PUBLIC "-//W3C//DTD SVG 1.1//EN" "http://www.w3.org/Graphics/SVG/1.1/DTD/svg11.dtd">
<svg xmlns="http://www.w3.org/2000/svg" xmlns:xlink="http://www.w3.org/1999/xlink" version="1.1" id="Layer_1" x="0px" y="0px" width="512px" height="512px" viewBox="0 0 512 512" enable-background="new 0 0 512 512" xml:space="preserve">
<path d="M256.006,0C397.394,0,512,114.618,512,256.006S397.394,512,256.006,512S0,397.394,0,256.006S114.618,0,256.006,0z   M256.006,36.571c-11.099,0-22.011,0.823-32.669,2.414c-2.277,4.968-3.902,10.421-3.902,15.874  c0,18.283-18.288-18.288-36.576,18.283c-18.282,36.576,0,0,0,36.576c0,18.282-26.465,5.053-18.282,9.141  c18.282,9.142,18.282,9.142,0,27.43c0,0-36.576-18.288-36.576,0s-18.282,18.288-36.57,18.288s0,36.57-18.288,36.57  c-14.059,0-6.497-21.62-18.875-31.613c-4.703,10.963-8.543,22.382-11.425,34.18c12.321,11.042,14.386,54.661,30.3,70.587  c18.288-18.294,18.288,0,36.576,0c18.282,0,18.282,0,27.429,18.271c18.283,0,27.43,18.294,45.712,36.588  c18.288,18.271,54.859,18.271,54.859,36.564c0,18.294-18.283,0-18.283,36.565c0,18.294,0,18.294-18.288,18.294  c-11.515,0-23.03,21.745-29.978,37.845c26.098,10.963,54.763,17.008,84.837,17.008c61.423,0,116.936-25.219,156.771-65.883  l-10.489-20.979c0,0,22.873-36.564,4.579-54.858c-18.294-18.271-18.294-36.565-18.294-36.565s-36.564,36.565-54.858,18.294  c-18.271-18.294-18.271,0-36.565-36.588c-18.294-36.564,18.294-54.853,18.294-54.853s0-36.57,18.271-36.57  c18.294,0,36.588-36.571,73.152,0c0,0,21.136-14.087,51.041-17.533c-9.384-21.965-22.235-42.086-37.891-59.669  c-3.281,2.357-7.579,4.055-13.15,4.055c-18.294,0,18.294,36.576,0,36.576s-18.294-18.288-36.564-18.288  c-18.294,0-18.294,18.288-36.588,36.571c-18.271,18.288,0,0-18.271-18.283c-18.294-18.288,36.565,0,18.271-18.288  c-18.271-18.288,18.294-18.288,18.294-36.57c0-14.347,22.5-17.437,32.2-18.107c-10.546-7.607-21.802-14.302-32.2-18.469  c18.294,18.288-18.294,36.576-36.565,36.576c-17.188,0-2.098-32.273-0.203-51.34C296.405,39.391,276.532,36.571,256.006,36.571z   M36.571,256.006c0,64.535,27.864,122.575,72.222,162.727L91.43,384.017c-18.288,0-27.43-41.144-27.43-59.438  c0-14.674-5.888-26.403,1.235-39.915c-25.8-25.912-10.377-11.864-10.377-28.658c0-8.707-8.289-17.408-16.974-24.142  C37.016,239.793,36.571,247.846,36.571,256.006z" fill="#000000"/>
</svg>
