<svg xmlns="http://www.w3.org/2000/svg" xmlns:xlink="http://www.w3.org/1999/xlink" version="1.1" id="Layer_1" x="0px" y="0px" width="64px" height="64px" viewBox="3.2 -6.4 64.0 86.4" enable-background="new 0 0 64 64" xml:space="preserve">
<g>
	<g>
		<path d="M18.004,8.005c-2.053,2.914-3.729,6.455-4.906,10.425h10.336c0.418-3.794,1.014-7.352,1.783-10.425H18.004z"/>
		<path d="M23.221,20.527h-10.69c-0.795,3.259-1.26,6.766-1.332,10.424h11.514C22.741,27.448,22.915,23.917,23.221,20.527z"/>
		<path d="M25.305,20.527c-0.289,3.172-0.467,6.656-0.494,10.424h7.285V20.527H25.305z"/>
		<path d="M25.217,55.997c-0.77-3.075-1.365-6.633-1.783-10.426H13.098c1.178,3.97,2.854,7.51,4.906,10.426H25.217z"/>
		<path d="M24.811,33.049c0.027,3.769,0.205,7.254,0.494,10.424h6.791V33.049H24.811z"/>
		<path d="M25.514,45.571c0.457,4.086,1.104,7.584,1.846,10.426h4.736V45.571H25.514z"/>
		<path d="M27.36,8.005c-0.742,2.841-1.389,6.338-1.846,10.425h6.582V8.005H27.36z"/>
		<path d="M12.529,43.473h10.692c-0.307-3.39-0.48-6.92-0.508-10.424H11.199C11.271,36.709,11.736,40.214,12.529,43.473z"/>
		<path d="M10.93,45.571H3.113c1.875,3.996,4.551,7.539,7.822,10.426h4.604C13.611,52.988,12.037,49.466,10.93,45.571z"/>
		<path d="M25.792,5.907c0.689-2.299,1.496-4.22,2.41-5.661c-0.273,0.031-0.549,0.063-0.818,0.102    c-2.846,1.022-5.471,2.936-7.743,5.56H25.792z"/>
		<path d="M15.537,8.005h-4.602c-3.271,2.888-5.947,6.428-7.822,10.425h7.816C12.037,14.534,13.609,11.012,15.537,8.005z"/>
		<path d="M27.963,58.096c0.949,2.996,2.006,4.99,3.008,5.877C31.346,63.985,31.719,64,32.096,64v-5.904H27.963z"/>
		<path d="M19.643,58.096c2.27,2.623,4.895,4.534,7.739,5.557c0.271,0.04,0.545,0.07,0.82,0.104c-0.914-1.443-1.721-3.363-2.41-5.66    H19.643z"/>
		<path d="M17.008,58.096h-3.424c2.104,1.493,4.395,2.74,6.833,3.697C19.205,60.713,18.064,59.476,17.008,58.096z"/>
		<path d="M20.417,2.209c-2.438,0.956-4.729,2.202-6.833,3.698h3.424C18.064,4.524,19.205,3.289,20.417,2.209z"/>
		<path d="M10.389,20.527H2.223c-1.252,3.253-1.984,6.761-2.102,10.424H9.1C9.172,27.309,9.619,23.807,10.389,20.527z"/>
		<path d="M9.1,33.049H0.121c0.117,3.666,0.85,7.173,2.102,10.424h8.164C9.619,40.193,9.172,36.692,9.1,33.049z"/>
		<path d="M30.971,0.029c-1.002,0.885-2.059,2.879-3.008,5.878h4.133V0C31.719,0,31.346,0.016,30.971,0.029z"/>
	</g>
	<g>
		<path d="M57.996,36.883l5.883-0.703v-8.354l-5.883-0.708c-0.641-3.188-1.896-6.15-3.633-8.765l3.66-4.667l-2.951-2.954    l-2.953-2.949l-2.051,1.61l-2.613,2.052c-2.615-1.739-5.58-2.995-8.77-3.634L37.98,1.924h-4.178v13.464    c4.535,0,8.639,1.817,11.639,4.765c0.033,0.037,0.076,0.063,0.113,0.1c0.033,0.036,0.061,0.078,0.098,0.114    c2.945,2.995,4.768,7.1,4.768,11.636c0,9.171-7.441,16.615-16.617,16.615v13.459h4.178l0.705-5.886    c0.402-0.077,0.795-0.167,1.186-0.267c2.74-0.691,5.297-1.843,7.584-3.364l4.664,3.662l1.965-1.969l3.939-3.932l-0.787-1.013    l-2.873-3.661c0.17-0.254,0.336-0.516,0.496-0.784C56.34,42.446,57.418,39.758,57.996,36.883z"/>
		<path d="M47.168,32.002c0-7.379-5.984-13.365-13.365-13.365v7.115c3.455,0,6.252,2.798,6.252,6.25c0,3.454-2.797,6.25-6.252,6.25    v7.115C41.184,45.367,47.168,39.383,47.168,32.002z"/>
	</g>
</g>
<text x="0.0" y="75.2" font-size="3.2" font-weight="bold" font-family="Helvetica Neue, Helvetica, Arial-Unicode, Arial, Sans-serif" fill="#000000">Created by Creative Stall</text><text x="0.0" y="78.4" font-size="3.2" font-weight="bold" font-family="Helvetica Neue, Helvetica, Arial-Unicode, Arial, Sans-serif" fill="#000000">from the Noun Project</text></svg>